<svg xmlns="http://www.w3.org/2000/svg" viewBox="0 0 32 32" width="32" height="32">
  <!-- Export: push arrow (same as Push) + blue globe badge (the whole game) -->
  <g transform="translate(4 4)" fill="none" stroke="#FFFFFF" stroke-width="2" stroke-linecap="round" stroke-linejoin="round">
    <!-- Push arrow: up out of a tray -->
    <path d="M21 15v4a2 2 0 0 1-2 2H5a2 2 0 0 1-2-2v-4"/>
    <polyline points="17 8 12 3 7 8"/>
    <line x1="12" y1="3" x2="12" y2="15"/>
  </g>
  <!-- Blue globe badge (top-right): the entire game -->
  <g fill="none" stroke="#00A2FF" stroke-width="2" stroke-linecap="round" stroke-linejoin="round">
    <circle cx="25" cy="7.5" r="4.5"/>
    <line x1="20.5" y1="7.5" x2="29.5" y2="7.5"/>
    <path d="M25 3a6.9 6.9 0 0 1 1.8 4.5 6.9 6.9 0 0 1-1.8 4.5 6.9 6.9 0 0 1-1.8-4.5 6.9 6.9 0 0 1 1.8-4.5z"/>
  </g>
</svg>